{
  "asset": {
    "generator": "Khronos glTF Blender I/O v1.6.16",
    "version": "2.0"
  },
  "scene": 0,
  "scenes": [
    {
      "name": "Scene",
      "nodes": [
        0
      ]
    }
  ],
  "nodes": [
    {
      "mesh": 0,
      "name": "model_New Qlone_20211216_161319755",
      "rotation": [
        0.7071068286895752,
        0,
        0,
        0.7071067094802856
      ],
      "scale": [
        0.10000000149011612,
        0.10000000149011612,
        0.10000000149011612
      ],
      "translation": [
        0,
        7.1992950439453125,
        0
      ]
    }
  ],
  "materials": [
    {
      "doubleSided": true,
      "name": "Material.001",
      "pbrMetallicRoughness": {
        "baseColorTexture": {
          "index": 0,
          "texCoord": 0
        },
        "metallicFactor": 0,
        "roughnessFactor": 0.5,
        "baseColorFactor": [
          1,
          1,
          1,
          1
        ]
      },
      "emissiveFactor": [
        0,
        0,
        0
      ],
      "alphaMode": "OPAQUE"
    }
  ],
  "meshes": [
    {
      "name": "model_New Qlone_20211216_161319755",
      "primitives": [
        {
          "attributes": {
            "POSITION": 0,
            "NORMAL": 1,
            "TEXCOORD_0": 2,
            "COLOR_0": 3
          },
          "indices": 4,
          "material": 0,
          "mode": 4
        }
      ]
    }
  ],
  "textures": [
    {
      "sampler": 0,
      "source": 0
    }
  ],
  "images": [
    {
      "bufferView": 5,
      "mimeType": "image/jpeg",
      "name": "texture copy"
    }
  ],
  "accessors": [
    {
      "bufferView": 0,
      "componentType": 5126,
      "count": 2607,
      "max": [
        35.27656936645508,
        35.50053024291992,
        74.01046752929688
      ],
      "min": [
        -35.19694900512695,
        -35.51018524169922,
        58.14189529418945
      ],
      "type": "VEC3",
      "byteOffset": 0
    },
    {
      "bufferView": 1,
      "componentType": 5126,
      "count": 2607,
      "type": "VEC3",
      "byteOffset": 0
    },
    {
      "bufferView": 2,
      "componentType": 5126,
      "count": 2607,
      "type": "VEC2",
      "byteOffset": 0
    },
    {
      "bufferView": 3,
      "componentType": 5123,
      "count": 2607,
      "normalized": true,
      "type": "VEC4",
      "byteOffset": 0
    },
    {
      "bufferView": 4,
      "componentType": 5123,
      "count": 7608,
      "type": "SCALAR",
      "byteOffset": 0
    }
  ],
  "bufferViews": [
    {
      "buffer": 0,
      "byteLength": 31284,
      "byteOffset": 0,
      "byteStride": 12,
      "target": 34962
    },
    {
      "buffer": 0,
      "byteLength": 31284,
      "byteOffset": 31288,
      "byteStride": 12,
      "target": 34962
    },
    {
      "buffer": 0,
      "byteLength": 20856,
      "byteOffset": 62576,
      "byteStride": 8,
      "target": 34962
    },
    {
      "buffer": 0,
      "byteLength": 20856,
      "byteOffset": 83432,
      "byteStride": 8,
      "target": 34962
    },
    {
      "buffer": 0,
      "byteLength": 15216,
      "byteOffset": 104288,
      "target": 34963
    },
    {
      "buffer": 0,
      "byteOffset": 119504,
      "byteLength": 83109
    }
  ],
  "samplers": [
    {
      "magFilter": 9729,
      "minFilter": 9987,
      "wrapS": 10497,
      "wrapT": 10497
    }
  ],
  "buffers": [
    {
      "name": "brown-butter-nutella-stuffed-pumpkin-chocolate-chip-cookie",
      "byteLength": 202616,
      "uri": "data:application/octet-stream;base64,"
    }
  ]
}
