{
  "asset": {
    "generator": "glTF-Transform v4.2.1",
    "version": "2.0"
  },
  "accessors": [
    {
      "type": "SCALAR",
      "componentType": 5123,
      "count": 39366,
      "bufferView": 0,
      "byteOffset": 0
    },
    {
      "type": "VEC3",
      "componentType": 5126,
      "count": 7159,
      "max": [
        0.17312254011631012,
        0.11604312062263489,
        0.05722394585609436
      ],
      "min": [
        -0.14910845458507538,
        0.07171005010604858,
        -0.2640826106071472
      ],
      "bufferView": 1,
      "byteOffset": 0
    },
    {
      "type": "VEC2",
      "componentType": 5126,
      "count": 7159,
      "bufferView": 1,
      "byteOffset": 12
    }
  ],
  "bufferViews": [
    {
      "buffer": 0,
      "byteOffset": 0,
      "byteLength": 78732,
      "target": 34963
    },
    {
      "buffer": 0,
      "byteOffset": 78732,
      "byteLength": 143180,
      "byteStride": 20,
      "target": 34962
    }
  ],
  "samplers": [
    {
      "wrapS": 10497,
      "wrapT": 10497
    }
  ],
  "textures": [
    {
      "sampler": 0,
      "extensions": {
        "EXT_texture_webp": {
          "source": 2
        }
      }
    },
    {
      "sampler": 0,
      "extensions": {
        "EXT_texture_webp": {
          "source": 0
        }
      }
    },
    {
      "sampler": 0,
      "extensions": {
        "EXT_texture_webp": {
          "source": 1
        }
      }
    },
    {
      "sampler": 0,
      "extensions": {
        "EXT_texture_webp": {
          "source": 3
        }
      }
    }
  ],
  "images": [
    {
      "name": "9593f84532d76cff567c785eff8fd750",
      "mimeType": "image/webp",
      "uri": "normal_1.webp"
    },
    {
      "name": "a83cc5e0e93e85860b8c1cd746ff8ee4",
      "mimeType": "image/webp",
      "uri": "occlusion_1.webp"
    },
    {
      "name": "c696be91c52062e895ddbe03f8904359",
      "mimeType": "image/webp",
      "uri": "baseColor_1.webp"
    },
    {
      "name": "0ed7f849ebe58a072b5a0442b14d2084",
      "mimeType": "image/webp",
      "uri": "metallicRoughness_1.webp"
    }
  ],
  "buffers": [
    {
      "uri": "drop-style-sugar-cookies.optimized.bin",
      "byteLength": 221912
    }
  ],
  "materials": [
    {
      "pbrMetallicRoughness": {
        "metallicFactor": 0,
        "baseColorTexture": {
          "index": 0
        },
        "metallicRoughnessTexture": {
          "index": 3
        }
      },
      "normalTexture": {
        "index": 1
      },
      "occlusionTexture": {
        "index": 2
      }
    }
  ],
  "meshes": [
    {
      "primitives": [
        {
          "attributes": {
            "POSITION": 1,
            "TEXCOORD_0": 2
          },
          "mode": 4,
          "material": 0,
          "indices": 0
        }
      ]
    }
  ],
  "nodes": [
    {
      "translation": [
        -0.01200704276561737,
        -0.07171005010604858,
        0.10342933237552643
      ],
      "mesh": 0
    }
  ],
  "scenes": [
    {
      "nodes": [
        0
      ]
    }
  ],
  "scene": 0,
  "extensionsUsed": [
    "EXT_texture_webp"
  ],
  "extensionsRequired": [
    "EXT_texture_webp"
  ]
}