{
  "asset": {
    "generator": "glTF-Transform v4.2.1",
    "version": "2.0"
  },
  "accessors": [
    {
      "type": "SCALAR",
      "componentType": 5123,
      "count": 5931,
      "bufferView": 0,
      "byteOffset": 0
    },
    {
      "type": "VEC3",
      "componentType": 5126,
      "count": 1131,
      "max": [
        0.6550531387329102,
        0.29376524686813354,
        -0.1650364249944687
      ],
      "min": [
        0.4690712094306946,
        0.21898877620697021,
        -0.3445930480957031
      ],
      "bufferView": 1,
      "byteOffset": 0
    },
    {
      "type": "VEC2",
      "componentType": 5126,
      "count": 1131,
      "bufferView": 1,
      "byteOffset": 12
    }
  ],
  "bufferViews": [
    {
      "buffer": 0,
      "byteOffset": 0,
      "byteLength": 11864,
      "target": 34963
    },
    {
      "buffer": 0,
      "byteOffset": 11864,
      "byteLength": 22620,
      "byteStride": 20,
      "target": 34962
    }
  ],
  "samplers": [
    {
      "wrapS": 10497,
      "wrapT": 10497
    }
  ],
  "textures": [
    {
      "sampler": 0,
      "extensions": {
        "EXT_texture_webp": {
          "source": 2
        }
      }
    },
    {
      "sampler": 0,
      "extensions": {
        "EXT_texture_webp": {
          "source": 0
        }
      }
    },
    {
      "sampler": 0,
      "extensions": {
        "EXT_texture_webp": {
          "source": 1
        }
      }
    }
  ],
  "images": [
    {
      "name": "86fe329b98f0bc6026fb322314ea5a79",
      "mimeType": "image/webp",
      "uri": "normal_1.webp"
    },
    {
      "name": "7165474f2d74081db1db56eb85887867",
      "mimeType": "image/webp",
      "uri": "occlusion_1.webp"
    },
    {
      "name": "afa3cdb236b5be1c94a1bc9a98981503",
      "mimeType": "image/webp",
      "uri": "baseColor_1.webp"
    }
  ],
  "buffers": [
    {
      "uri": "orange-chocolate-chip-ricotta-cookies.optimized.bin",
      "byteLength": 34484
    }
  ],
  "materials": [
    {
      "pbrMetallicRoughness": {
        "metallicFactor": 0,
        "baseColorTexture": {
          "index": 0
        }
      },
      "normalTexture": {
        "index": 1
      },
      "occlusionTexture": {
        "index": 2
      }
    }
  ],
  "meshes": [
    {
      "primitives": [
        {
          "attributes": {
            "POSITION": 1,
            "TEXCOORD_0": 2
          },
          "mode": 4,
          "material": 0,
          "indices": 0
        }
      ]
    }
  ],
  "nodes": [
    {
      "translation": [
        -0.5620621740818024,
        -0.21898877620697021,
        0.2548147365450859
      ],
      "mesh": 0
    }
  ],
  "scenes": [
    {
      "nodes": [
        0
      ]
    }
  ],
  "scene": 0,
  "extensionsUsed": [
    "EXT_texture_webp"
  ],
  "extensionsRequired": [
    "EXT_texture_webp"
  ]
}